<?xml version="1.0" encoding="utf-8"?>
<!-- Generator: Adobe Illustrator 18.1.1, SVG Export Plug-In . SVG Version: 6.00 Build 0)  -->
<svg version="1.1" id="Layer_1" xmlns="http://www.w3.org/2000/svg" xmlns:xlink="http://www.w3.org/1999/xlink" x="0px" y="0px"
	 viewBox="0 0 917.7 143.3" enable-background="new 0 0 917.7 143.3" xml:space="preserve">
<g>
	<path fill="#FFFFFF" stroke="#FFFFFF" stroke-miterlimit="10" d="M2.8,29.6c5.9-1.2,11-2.2,15.4-2.8c4.4-0.6,10-1.4,16.8-2.2
		c0.3,0,0.6,0.1,0.9,0.3c0.3,0.2,0.7,0.4,1.2,0.7c0.2,0.4,0.5,0.8,0.7,1.2c0.3,0.4,0.5,0.8,0.6,1.2c0.2,0.4,0.2,0.7,0.2,1
		c-2.4,0.5-4.4,1-6,1.4c-1.6,0.4-3.2,0.9-5,1.4c-1.8,0.5-3.5,1-5.2,1.4c-0.2,0.4-0.7,1.3-1.3,2.7c-0.6,1.4-1.6,3.6-2.8,6.7
		c-0.5,1.3-1.3,3.3-2.3,5.7c-1,2.5-1.9,4.4-2.5,5.9c-0.6,1.5-1.4,3.3-2.3,5.4c-0.9,2.1-1.9,4.5-3,7.2c-0.5-0.1-1.1-0.4-1.9-1
		c-0.8-0.6-1.2-1-1.4-1c-0.4-0.2-0.7-0.3-1.1-0.4c-0.3-0.1-0.6-0.3-0.8-0.5c-0.2-0.2-0.3-0.3-0.3-0.5L15,33.8
		c-1.8,0.1-3.4,0.3-4.8,0.5c-1.5,0.2-3.5,0.6-6,1.1c-0.3-0.3-0.4-0.6-0.5-1c-0.1-0.4-0.1-1-0.1-1.7c0-0.3-0.1-0.6-0.2-0.9
		c-0.1-0.3-0.2-0.5-0.3-0.7c-0.1-0.2-0.2-0.3-0.3-0.5c-0.1-0.2-0.1-0.3-0.1-0.4C2.7,30.1,2.7,29.9,2.8,29.6z"/>
	<path fill="#FFFFFF" stroke="#FFFFFF" stroke-miterlimit="10" d="M45.6,19.6c0.7,0,1,0.1,1,0.2c0.1,0.1,0.2,0.2,0.2,0.4
		c0,0.8-0.6,2.4-1.8,4.9c-1.2,2.5-2.8,5.6-4.8,9.5c-2,3.9-3,6-3.1,6.4c0.4-0.3,1.3-0.8,2.6-1.7c1.3-0.9,2.4-1.5,3.3-1.9
		c0.9-0.4,1.8-0.6,2.7-0.6c1.4,0,2.7,0.5,4,1.7c0.8,0.7,1.1,1.5,1.1,2.6c0,0.8-0.1,1.6-0.4,2.4c-0.3,0.8-0.6,1.7-1.1,2.7
		c-0.4,1-0.9,2.1-1.5,3.3c-2.8,7.1-5.2,12.8-7.4,17.3c-0.3,0-0.6,0-0.9-0.1c-0.3-0.1-0.5-0.2-0.8-0.4c-0.3-0.2-0.5-0.3-0.6-0.4
		c-0.1-0.1-0.3-0.3-0.5-0.4c-0.8-0.4-1.4-0.8-1.9-1.2c-0.4-0.3-0.6-0.8-0.7-1.2c0.2-0.6,0.7-1.6,1.3-3.1c0.6-1.5,1.3-3,2-4.6
		c0.6-1.5,1.2-2.8,1.7-3.9c0.5-1.1,1-2.1,1.5-3c0.5-0.9,0.9-1.9,1.4-2.9c0.5-1,1-2,1.4-3.1c-2.3,0.5-4.3,1.4-5.8,2.7
		c-1.5,1.3-2.9,2.9-4,4.8c-1.1,1.9-2.5,4.7-4.2,8.4c-1.7,3.7-3.1,6.6-4.2,8.7c-0.6,0-1.1-0.1-1.5-0.3c-0.4-0.2-0.7-0.5-1-0.8
		c-0.3-0.3-0.5-0.6-0.7-0.8c-0.4-0.3-0.8-0.6-1.3-0.9c-0.4-0.3-0.7-0.7-0.8-1.2c0.6-1.3,1.4-3.1,2.4-5.3c1-2.2,1.9-4.3,2.7-6.2
		c0.8-1.9,1.6-3.5,2.2-4.9c0.6-1.3,1.2-2.6,1.9-3.8c0.7-1.4,1.8-3.8,3.5-7.5c1.7-3.6,3-6.3,3.8-7.9c0.8-1.6,1.6-3.3,2.6-5
		c0.9-1.7,1.5-2.6,1.7-2.7c0,0,0.1-0.1,0.2-0.3c0.1-0.1,0.2-0.3,0.3-0.4c0.1-0.1,0.2-0.2,0.4-0.2c0.3,0,0.5,0.2,0.8,0.5
		c0.3,0.4,0.6,0.6,0.9,0.6c0.2,0,0.4-0.1,0.8-0.2S45.4,19.6,45.6,19.6z"/>
	<path fill="#FFFFFF" stroke="#FFFFFF" stroke-miterlimit="10" d="M48.3,63.4c-0.7-1.1-1-2.4-1-4.1c0-2.2,0.5-4.6,1.6-7.2
		c1.1-2.6,2.6-5,4.5-7.3c1.9-2.3,4.3-4.2,7.1-5.6c2.8-1.5,5.8-2.2,9-2.2c1.8,0.1,3.3,0.8,4.4,2.1s1.7,2.7,1.7,4.5
		c0,1.4-0.4,2.6-1.1,3.9c-1.2,1.9-3.1,3.5-5.8,4.8c-1.7,1-4,1.9-6.8,2.8c-2.8,0.9-5.4,1.4-7.8,1.5c-0.3,1.3-0.5,2.1-0.5,2.4
		c0,1,0.5,1.7,1.6,2.2c0.5,0.2,1.1,0.3,2,0.3c2,0,4.1-0.6,6.4-1.7c2.3-1.2,4-2.8,5.2-4.9c0.2,0.1,0.3,0.8,0.3,1.9
		c0,0.1,0.3,0.4,0.7,0.7c0.4,0.4,0.7,0.6,0.7,0.8c-0.5,1.6-1.5,3.1-3,4.5c-1.6,1.3-3.4,2.4-5.6,3.2c-2.2,0.8-4.2,1.2-6.2,1.2
		C51.8,67.1,49.4,65.9,48.3,63.4z M69.6,43.5c-0.4-0.5-1.1-0.8-2.2-0.8c-0.7,0-1.5,0.2-2.5,0.5c-2,0.8-3.7,1.7-5.2,2.9
		s-2.8,2.7-4,4.6c0.6-0.1,1.9-0.4,3.9-0.9c1.9-0.5,3.4-0.9,4.2-1.1c1.9-0.7,3.4-1.5,4.4-2.2c1.1-0.8,1.6-1.5,1.6-2.2
		C69.9,44.1,69.8,43.8,69.6,43.5z"/>
</g>
<g>
	<path fill="#FFFFFF" stroke="#FFFFFF" stroke-miterlimit="10" d="M775.2,81.7c3.1-1.5,5.4-2.5,7.1-3c1.7-0.5,4.2-1.1,7.7-1.8
		c1-0.2,1.9-0.2,2.6-0.2c1.3,0,2.7,0.1,4.1,0.4c1.5,0.3,2.9,0.7,4.1,1.3c1.3,0.6,2.3,1.3,3.3,2.1c0.9,0.8,1.5,1.8,1.8,2.8
		c0.4,1.5,0.6,2.8,0.6,3.9c0,1.8-0.4,3.3-1.1,4.5c-0.8,1.2-1.8,2.2-3,2.9c-1.2,0.8-2.8,1.4-4.5,2.1c-1.8,0.6-3.5,1.3-5.1,1.9
		c2.3,1.7,4.1,3.3,5.3,4.8c1.2,1.5,1.8,3.1,1.8,4.9c0,1.4-0.4,2.8-1.2,4.3c-1.1,2.2-3,4-5.6,5.5c-2.6,1.5-5.5,2.2-8.7,2.2
		c-2.9,0-5.7-0.6-8.4-1.8c-0.3-0.1-0.5-0.5-0.5-1c0-0.5-0.1-0.8-0.3-0.9c-0.1,0.3-0.5,0.8-1,1.6c-0.5,0.8-0.9,1.4-1.2,1.8
		c-0.3,0.4-0.5,0.9-0.6,1.3c-0.5-0.1-0.8-0.2-1-0.5c-0.2-0.3-0.3-0.5-0.5-0.9c-0.2-0.3-0.5-0.6-0.9-0.8c-0.2-0.2-0.5-0.5-0.9-0.8
		c-0.3-0.4-0.5-0.6-0.5-0.7c0.5-2.4,1.5-5.5,2.9-9.1c1.4-3.7,2.9-7.3,4.5-11c1.6-3.7,2.9-6.5,3.8-8.4c0.9-1.9,1.6-3.3,2-4.2
		c-0.7,0.1-1.2,0.2-1.7,0.4c-0.5,0.1-1.3,0.4-2.4,0.8c-1.1,0.4-1.8,0.7-2.2,0.8c0-0.2-0.1-0.4-0.1-0.6c0-0.2-0.1-0.4-0.1-0.6
		c0-0.4,0.1-0.8,0.2-1.3c0.1-0.5,0.2-0.8,0.2-1c0-0.2,0-0.4-0.1-0.8C775.2,82.2,775.2,81.9,775.2,81.7z M781.3,101.8
		c-1.1,2.2-2,4.1-2.7,5.7c-0.7,1.6-1.5,3.4-2.2,5.4c0.8-0.8,1.7-1.5,2.7-2c1-0.5,1.8-0.8,2.6-0.8c0.5,0,1,0.1,1.3,0.3
		c0,0.3-0.2,0.5-0.4,0.7c-0.2,0.2-0.6,0.5-1.2,0.8c-0.5,0.3-0.9,0.6-1,0.7c-0.3,0.4-0.5,0.7-0.5,1c0,0.4,0.3,0.7,1,1.1
		c2.3,0,4.3-0.3,6-0.9c1.7-0.6,3.1-1.6,4.1-3c1-1.4,1.5-3.1,1.5-5.2c-0.8-1-1.6-1.7-2.3-2.2c-0.8-0.5-1.9-0.9-3.3-1.1
		C785.4,101.9,783.6,101.8,781.3,101.8z M792.1,82.2c-0.6,0.1-1.2,0.3-1.8,0.6c-0.6,0.3-1.1,0.5-1.3,0.5l-5.3,11.9
		c3.3-0.3,6.2-1,8.8-2c2.6-1,4.5-2.2,5.9-3.6c1.4-1.5,2.1-3,2.1-4.6c-0.3-0.6-0.8-1.1-1.6-1.5c-0.8-0.4-1.6-0.8-2.6-1
		c-0.9-0.2-1.9-0.3-2.8-0.3C793.1,82.1,792.6,82.1,792.1,82.2z"/>
	<path fill="#FFFFFF" stroke="#FFFFFF" stroke-miterlimit="10" d="M800.7,117.7c-0.4-0.8-0.6-1.7-0.6-2.8c0-2.2,0.7-4.7,2.2-7.8
		c1.5-3,3.2-5.8,5.1-8.5c1.9-2.7,3.8-5.1,5.6-7.3c0.2-0.1,0.5-0.2,0.7-0.2c0.3,0,0.7,0.1,1.1,0.3c0.4,0.2,0.7,0.3,0.9,0.3
		c0.2,0,0.5-0.1,1-0.2s0.8-0.2,1-0.2c0.4,0,0.7,0.2,0.8,0.6c-2.5,4-4.4,7-5.8,9.2c-1.4,2.2-2.5,4-3.4,5.5c-0.9,1.5-1.5,2.8-2,3.8
		c-0.4,1-0.7,1.9-0.7,2.5c0,0.4,0.1,0.8,0.3,1.1c1.3-0.2,2.7-0.9,4.2-2.2c1.5-1.2,3.4-3.4,5.8-6.5c2.4-3.1,5.5-7.4,9.3-13
		c0.3-0.4,0.6-0.5,1-0.5c0.3,0,0.7,0.1,1.2,0.3c0.5,0.2,0.9,0.3,1.2,0.3c0.3,0,0.6-0.1,1.1-0.4c0.5-0.3,0.8-0.4,1.1-0.4
		c0.3,0,0.6,0.1,0.8,0.4l-13.2,29.4c-0.4,0-0.7-0.1-0.9-0.2c-0.2-0.1-0.3-0.3-0.5-0.6c-0.2-0.3-0.3-0.4-0.5-0.6
		c-0.1-0.1-0.5-0.2-1.1-0.3c-0.6-0.1-0.9-0.3-0.9-0.6c0-0.9,0.2-2,0.6-3.1c0.4-1.1,0.6-1.9,0.7-2.3c-0.2,0.1-0.8,0.6-1.8,1.6
		c-1,0.9-1.9,1.8-2.9,2.6c-0.9,0.8-2,1.5-3.2,2.2c-1.2,0.7-2.4,1-3.5,1C803.5,121.3,801.9,120.1,800.7,117.7z"/>
	<path fill="#FFFFFF" stroke="#FFFFFF" stroke-miterlimit="10" d="M862.5,74.6c0.4-0.3,0.8-0.4,1-0.5c0.2-0.1,0.4-0.1,0.7-0.2
		c0.3,0,0.6-0.1,1.2-0.2c0.3-0.1,0.6-0.1,0.8-0.1c0.5,0,1,0.1,1.4,0.2c0.4,0.1,0.7,0.3,0.8,0.5l-21,47.1c-0.3,0-0.6-0.1-0.9-0.3
		c-0.3-0.2-0.6-0.4-0.9-0.7c-0.3-0.3-0.6-0.5-0.8-0.7c-1.1,0-1.7-0.2-1.9-0.5c0.1-0.4,0.1-0.7,0.2-1c0.1-0.3,0.2-0.7,0.3-1.1
		c0.1-0.4,0.3-0.7,0.4-1.1c0.1-0.4,0.2-0.8,0.3-1.3c-4.3,4.6-7.9,6.9-10.7,6.9c-2.1,0-3.6-1.4-4.6-4.1c-0.2-0.6-0.3-1.4-0.3-2.4
		c0-2.3,0.6-4.9,1.9-8c1.3-3,3.1-6,5.5-8.9c2.4-2.9,5.3-5.3,8.7-7.2c3.4-1.9,7.2-2.8,11.3-2.8L862.5,74.6z M853.2,93.5
		c-3.2,0.5-6.1,2.1-8.9,4.6c-2.8,2.5-5,5.3-6.7,8.4c-1.7,3.1-2.6,5.6-2.6,7.5c0,0.8,0.1,1.3,0.4,1.6c0.9,0,2-0.5,3.2-1.4
		c1.2-0.9,2.3-1.9,3.2-3c0.9-1.1,2-2.4,3.3-4.1c1.3-1.7,2.2-2.7,2.7-3.2c0.7-1.3,1.7-3.2,3-5.5C852.1,95.9,852.8,94.3,853.2,93.5z"
		/>
	<path fill="#FFFFFF" stroke="#FFFFFF" stroke-miterlimit="10" d="M889.2,74.6c0.4-0.3,0.8-0.4,1-0.5c0.2-0.1,0.4-0.1,0.7-0.2
		c0.3,0,0.7-0.1,1.2-0.2c0.3-0.1,0.6-0.1,0.8-0.1c0.5,0,1,0.1,1.4,0.2c0.4,0.1,0.7,0.3,0.8,0.5l-21,47.1c-0.3,0-0.6-0.1-0.9-0.3
		c-0.3-0.2-0.6-0.4-0.9-0.7c-0.3-0.3-0.6-0.5-0.8-0.7c-1.1,0-1.7-0.2-1.9-0.5c0.1-0.4,0.1-0.7,0.2-1c0.1-0.3,0.2-0.7,0.3-1.1
		c0.1-0.4,0.3-0.7,0.4-1.1c0.1-0.4,0.2-0.8,0.3-1.3c-4.3,4.6-7.9,6.9-10.7,6.9c-2.1,0-3.6-1.4-4.6-4.1c-0.2-0.6-0.3-1.4-0.3-2.4
		c0-2.3,0.6-4.9,1.9-8c1.3-3,3.1-6,5.5-8.9c2.4-2.9,5.3-5.3,8.7-7.2c3.4-1.9,7.2-2.8,11.3-2.8L889.2,74.6z M879.9,93.5
		c-3.2,0.5-6.1,2.1-8.9,4.6c-2.8,2.5-5,5.3-6.7,8.4c-1.7,3.1-2.6,5.6-2.6,7.5c0,0.8,0.1,1.3,0.4,1.6c0.9,0,2-0.5,3.2-1.4
		c1.2-0.9,2.3-1.9,3.2-3c0.9-1.1,2-2.4,3.3-4.1c1.3-1.7,2.2-2.7,2.7-3.2c0.7-1.3,1.7-3.2,3-5.5C878.8,95.9,879.6,94.3,879.9,93.5z"
		/>
	<path fill="#FFFFFF" stroke="#FFFFFF" stroke-miterlimit="10" d="M903.7,102.5c-0.1,0.1-0.1,0.1-0.1,0.1c0,0,0,0-0.1,0
		c0,0,0.4-0.6,1.3-1.7c0.9-1.1,1.8-2.2,2.7-3.3c0.9-1.1,1.7-2.1,2.4-2.9c0.7-0.8,1.1-1.4,1.5-1.8c0.4-0.3,1.1-0.4,2-0.4
		c1.2,0,1.9,0.1,2.1,0.3c0.2,0.3,0.4,0.5,0.7,0.7c0.2,0.2,0.5,0.3,0.8,0.5c0.3,0.1,0.5,0.3,0.6,0.4c0.1,0.1,0.2,0.2,0.2,0.4
		c-1,1.3-2.7,3.6-5.1,6.8c-2.4,3.2-4.6,6-6.4,8.4c-1.8,2.4-3.2,4.1-4.1,5.1c-0.5,0.5-1.9,2.3-4.4,5.5c-2.5,3.1-4.9,6.2-7.1,9
		c-2.3,2.9-3.9,5-5,6.3c-0.5-0.1-0.8-0.2-1-0.5c-0.2-0.3-0.3-0.7-0.5-1.2c-0.2-0.6-0.4-0.9-0.5-1.1c-1.2-0.3-1.9-0.8-1.9-1.5
		c0-0.2,0.1-0.4,0.2-0.6l9-13.4c-0.7-3.2-1-9.1-1-17.8c0-3.4,0.1-5.9,0.2-7.6c0-0.1,0.1-0.1,0.2-0.2c0.1-0.1,0.2-0.1,0.4-0.1
		c0.8,0,1.7,0.8,2.8,2.4c0.2,0.1,0.4,0.2,0.6,0.2c0.2,0,0.4-0.1,0.8-0.2c0.4-0.1,0.7-0.2,0.9-0.2c0.4,0,0.8,0.3,1.2,0.8l-0.7,17.7
		c0.5-0.7,1.3-1.8,2.3-3.1c1-1.3,2-2.6,2.9-3.9C902.4,104.3,903.2,103.2,903.7,102.5z"/>
</g>
<g>
	<path fill="#FFFFFF" stroke="#FFFFFF" stroke-miterlimit="10" d="M92.9,15.6c9.5-4.6,16.9-7.7,22.2-9.2c5.3-1.6,13.3-3.4,23.9-5.6
		c3.1-0.5,5.8-0.7,8-0.7c4,0,8.3,0.5,12.9,1.4c4.6,0.9,8.9,2.3,12.8,4c3.9,1.7,7.3,3.9,10.2,6.5s4.8,5.5,5.6,8.7
		c1.1,4.6,1.7,8.7,1.7,12.3c0,5.6-1.2,10.3-3.5,14c-2.4,3.7-5.5,6.7-9.4,9.1c-3.9,2.4-8.6,4.5-14.1,6.5c-5.5,2-10.8,3.9-16,5.8
		c7.2,5.4,12.7,10.4,16.4,15c3.8,4.6,5.6,9.7,5.6,15.2c0,4.3-1.2,8.8-3.7,13.5c-3.6,6.8-9.4,12.5-17.6,17.1c-8.2,4.6-17.2,7-27.2,7
		c-9.1,0-17.9-1.9-26.3-5.7c-1-0.4-1.5-1.4-1.6-3c-0.1-1.6-0.5-2.5-1-2.8c-0.4,0.8-1.5,2.5-3.1,4.9c-1.7,2.4-2.9,4.3-3.8,5.7
		c-0.9,1.4-1.5,2.7-1.9,4.1c-1.6-0.2-2.6-0.8-3.1-1.5c-0.5-0.8-1-1.7-1.5-2.7c-0.5-1-1.5-1.8-2.9-2.4c-0.7-0.6-1.6-1.5-2.7-2.6
		c-1.1-1.1-1.6-1.9-1.6-2.2c1.7-7.5,4.7-17,9-28.4c4.3-11.4,9-22.9,14.2-34.4c5.1-11.5,9.1-20.2,12-26.2c2.9-5.9,5-10.3,6.4-13.2
		c-2,0.4-3.9,0.8-5.4,1.2c-1.6,0.5-4,1.3-7.4,2.6c-3.3,1.3-5.7,2.1-7,2.6c-0.1-0.7-0.3-1.3-0.4-1.9c-0.2-0.6-0.2-1.2-0.2-1.8
		c0-1.1,0.2-2.5,0.6-4.1c0.4-1.6,0.6-2.6,0.7-3.1c0-0.5-0.1-1.3-0.3-2.5C93,17.3,92.9,16.3,92.9,15.6z M112.2,78.2
		c-3.4,6.9-6.2,12.8-8.3,17.7c-2.2,4.9-4.5,10.5-7,16.8c2.5-2.6,5.3-4.7,8.3-6.4c3-1.7,5.7-2.5,8-2.5c1.7,0,3,0.3,4.1,0.9
		c-0.1,0.8-0.6,1.5-1.3,2.1c-0.8,0.6-2,1.5-3.7,2.5c-1.7,1.1-2.8,1.8-3.1,2.2c-1,1.3-1.5,2.3-1.5,3c0,1.1,1.1,2.3,3.2,3.5
		c7,0,13.3-1,18.7-2.9c5.4-2,9.7-5.1,12.8-9.3c3.1-4.2,4.6-9.6,4.6-16.1c-2.4-3.1-4.8-5.4-7.3-6.9c-2.5-1.5-5.9-2.7-10.2-3.4
		C124.8,78.6,119.1,78.2,112.2,78.2z M145.6,17.2c-1.7,0.4-3.6,1-5.6,1.9c-2,0.9-3.3,1.4-4,1.6l-16.5,37c10.2-1,19.3-3.1,27.3-6.1
		c8-3,14.1-6.8,18.5-11.4c4.4-4.5,6.6-9.4,6.6-14.5c-0.9-1.7-2.6-3.3-5-4.7c-2.4-1.4-5.1-2.4-8-3.2c-3-0.7-5.8-1.1-8.7-1.1
		C149,16.8,147.4,16.9,145.6,17.2z"/>
	<path fill="#FFFFFF" stroke="#FFFFFF" stroke-miterlimit="10" d="M174.4,129c-2.1-3.3-3.2-7.6-3.2-12.9c0-6.9,1.7-14.3,5-22.4
		c3.3-8,8-15.6,14.1-22.7c6.1-7.1,13.4-12.9,22-17.5c8.6-4.6,18-6.8,28-6.8c5.7,0.4,10.3,2.5,13.7,6.4s5.2,8.6,5.2,13.9
		c0,4.2-1.1,8.2-3.3,12c-3.7,5.9-9.7,10.9-18,15c-5.4,3.1-12.5,6.1-21.2,8.8c-8.7,2.7-16.8,4.3-24.3,4.7c-1.1,3.9-1.6,6.4-1.6,7.6
		c0,3,1.7,5.3,5,6.9c1.4,0.6,3.6,0.9,6.3,0.9c6.3,0,12.9-1.8,20-5.4c7.1-3.6,12.4-8.7,16.1-15.3c0.5,0.4,0.8,2.4,0.8,5.8
		c0.1,0.4,0.9,1.1,2.2,2.3c1.4,1.2,2,2,2,2.5c-1.4,5.1-4.6,9.8-9.4,14c-4.9,4.2-10.6,7.5-17.4,10c-6.7,2.5-13.2,3.8-19.3,3.8
		C185.5,140.5,178,136.7,174.4,129z M241,67c-1.2-1.6-3.5-2.4-6.9-2.4c-2.2,0-4.8,0.5-7.8,1.4c-6.3,2.4-11.7,5.3-16.2,9
		c-4.5,3.6-8.7,8.4-12.5,14.4c2-0.4,6-1.3,12.1-2.8c6.1-1.5,10.5-2.7,13.2-3.6c5.9-2.2,10.5-4.6,13.9-7c3.3-2.4,5-4.7,5-6.7
		C241.9,68.7,241.6,67.9,241,67z"/>
	<path fill="#FFFFFF" stroke="#FFFFFF" stroke-miterlimit="10" d="M255,129c-2.1-3.3-3.2-7.6-3.2-12.9c0-6.9,1.7-14.3,5-22.4
		c3.3-8,8-15.6,14.1-22.7c6.1-7.1,13.4-12.9,22-17.5c8.6-4.6,18-6.8,28-6.8c5.7,0.4,10.3,2.5,13.7,6.4c3.4,3.9,5.2,8.6,5.2,13.9
		c0,4.2-1.1,8.2-3.3,12c-3.7,5.9-9.7,10.9-18,15c-5.4,3.1-12.5,6.1-21.2,8.8c-8.7,2.7-16.8,4.3-24.3,4.7c-1.1,3.9-1.6,6.4-1.6,7.6
		c0,3,1.7,5.3,5,6.9c1.4,0.6,3.6,0.9,6.3,0.9c6.3,0,12.9-1.8,20-5.4c7.1-3.6,12.4-8.7,16.1-15.3c0.5,0.4,0.8,2.4,0.8,5.8
		c0.1,0.4,0.9,1.1,2.2,2.3c1.4,1.2,2,2,2,2.5c-1.4,5.1-4.6,9.8-9.4,14c-4.9,4.2-10.6,7.5-17.4,10c-6.7,2.5-13.2,3.8-19.3,3.8
		C266.1,140.5,258.6,136.7,255,129z M321.6,67c-1.2-1.6-3.5-2.4-6.9-2.4c-2.2,0-4.8,0.5-7.8,1.4c-6.3,2.4-11.7,5.3-16.2,9
		s-8.7,8.4-12.5,14.4c2-0.4,6-1.3,12.1-2.8c6.1-1.5,10.5-2.7,13.2-3.6c5.9-2.2,10.5-4.6,13.9-7c3.3-2.4,5-4.7,5-6.7
		C322.5,68.7,322.2,67.9,321.6,67z"/>
	<path fill="#FFFFFF" stroke="#FFFFFF" stroke-miterlimit="10" d="M377.5,62.6c3.5-3.3,8.8-7.1,16-11.5c7.2-4.4,12.6-7.3,16.4-8.6
		c1.2,0.5,2.1,1.1,2.6,1.9c0.5,0.8,0.9,1.6,1.2,2.7c0.3,1,0.6,2.3,1,3.8c0.2,0.5,0.8,1.3,1.7,2.3c0.9,1,1.6,1.9,1.9,2.5
		c0.4,0.6,0.6,1.2,0.6,1.9c0,0.7-0.1,1.3-0.4,1.6c-10.4,4.8-18.4,8.6-23.8,11.3c-5.4,2.7-10.3,5.8-14.8,9.1
		c-4.5,3.3-8.1,6.8-10.9,10.5c-4.2,7-11.6,23.3-22.1,49c-2.4-0.2-4.2-1.1-5.7-2.4c-1.4-1.4-2.4-2.5-2.9-3.4
		c-0.5-0.6-1.6-1.1-3.2-1.6c-1.6-0.5-2.6-0.8-2.9-1c-0.4-0.2-0.5-0.8-0.5-1.7c0.8-3.1,2.4-8.1,4.7-15.1c2.3-7,5.4-15.2,9.2-24.6
		c3-7.2,6.8-15.8,11.5-25.6c4.6-9.9,7-14.8,7.2-14.8c0.8-0.7,1.8-1,2.8-1c0.9,0,1.9,0,2.9,0c1.1,0,2.3,0.1,3.8,0.1
		c0.5-0.1,1.8-0.8,3.7-2c1.9-1.2,3.5-1.9,4.8-1.9c1,0,2,0.3,3,0.8C383.5,48.6,380.8,54.6,377.5,62.6z"/>
	<path fill="#FFFFFF" stroke="#FFFFFF" stroke-miterlimit="10" d="M447.4,15.6c9.5-4.6,16.9-7.7,22.2-9.2c5.3-1.6,13.3-3.4,23.9-5.6
		c3.1-0.5,5.8-0.7,8-0.7c4,0,8.3,0.5,12.9,1.4c4.6,0.9,8.9,2.3,12.8,4c3.9,1.7,7.3,3.9,10.2,6.5s4.8,5.5,5.6,8.7
		c1.1,4.6,1.7,8.7,1.7,12.3c0,5.6-1.2,10.3-3.5,14c-2.4,3.7-5.5,6.7-9.4,9.1c-3.9,2.4-8.6,4.5-14.1,6.5c-5.5,2-10.8,3.9-16,5.8
		c7.2,5.4,12.7,10.4,16.4,15c3.8,4.6,5.6,9.7,5.6,15.2c0,4.3-1.2,8.8-3.7,13.5c-3.6,6.8-9.4,12.5-17.6,17.1c-8.2,4.6-17.2,7-27.2,7
		c-9.1,0-17.9-1.9-26.3-5.7c-1-0.4-1.5-1.4-1.6-3c-0.1-1.6-0.5-2.5-1-2.8c-0.4,0.8-1.5,2.5-3.1,4.9c-1.7,2.4-2.9,4.3-3.8,5.7
		c-0.9,1.4-1.5,2.7-1.9,4.1c-1.6-0.2-2.6-0.8-3.1-1.5c-0.5-0.8-1-1.7-1.5-2.7c-0.5-1-1.5-1.8-2.9-2.4c-0.7-0.6-1.6-1.5-2.7-2.6
		c-1.1-1.1-1.6-1.9-1.6-2.2c1.7-7.5,4.7-17,9-28.4c4.3-11.4,9-22.9,14.2-34.4c5.1-11.5,9.1-20.2,12-26.2c2.9-5.9,5-10.3,6.4-13.2
		c-2,0.4-3.9,0.8-5.4,1.2c-1.6,0.5-4,1.3-7.4,2.6c-3.3,1.3-5.7,2.1-7,2.6c-0.1-0.7-0.3-1.3-0.4-1.9c-0.2-0.6-0.2-1.2-0.2-1.8
		c0-1.1,0.2-2.5,0.6-4.1c0.4-1.6,0.6-2.6,0.7-3.1c0-0.5-0.1-1.3-0.3-2.5C447.5,17.3,447.4,16.3,447.4,15.6z M466.6,78.2
		c-3.4,6.9-6.2,12.8-8.3,17.7c-2.2,4.9-4.5,10.5-7,16.8c2.5-2.6,5.3-4.7,8.3-6.4c3-1.7,5.7-2.5,8-2.5c1.7,0,3,0.3,4.1,0.9
		c-0.1,0.8-0.6,1.5-1.3,2.1c-0.8,0.6-2,1.5-3.7,2.5c-1.7,1.1-2.8,1.8-3.1,2.2c-1,1.3-1.5,2.3-1.5,3c0,1.1,1.1,2.3,3.2,3.5
		c7,0,13.3-1,18.7-2.9c5.4-2,9.7-5.1,12.8-9.3c3.1-4.2,4.6-9.6,4.6-16.1c-2.4-3.1-4.8-5.4-7.3-6.9c-2.5-1.5-5.9-2.7-10.2-3.4
		C479.2,78.6,473.6,78.2,466.6,78.2z M500.1,17.2c-1.7,0.4-3.6,1-5.6,1.9c-2,0.9-3.3,1.4-4,1.6l-16.5,37c10.2-1,19.4-3.1,27.3-6.1
		c8-3,14.1-6.8,18.5-11.4c4.4-4.5,6.6-9.4,6.6-14.5c-0.9-1.7-2.6-3.3-5-4.7c-2.4-1.4-5.1-2.4-8-3.2c-3-0.7-5.8-1.1-8.7-1.1
		C503.4,16.8,501.9,16.9,500.1,17.2z"/>
	<path fill="#FFFFFF" stroke="#FFFFFF" stroke-miterlimit="10" d="M538.8,136.6c-9.3-4.8-14-13-14-24.8c0-5.7,1.2-11.7,3.5-18.2
		c2.4-6.4,5.7-12.8,9.9-18.9s9.3-11.9,15.1-17c5.8-5.2,12.1-9.5,19.1-12.8c3.7-1.9,7.4-2.8,11.3-2.8c4.1,0,7.8,1.1,11.2,3.3
		c3.4,2.2,6.1,5.1,8.3,8.7c2.1,3.6,3.4,7.1,3.8,10.5c0,6.8-1.5,14.5-4.6,23.3c-3,8.8-7.1,17.2-12.3,25.2c-5.1,8-11,14.6-17.6,19.7
		c-6.6,5.1-13.3,7.6-20,7.6C547.7,140.5,543.1,139.2,538.8,136.6z M584.7,62.2c-0.8-0.5-1.8-0.7-2.9-0.7c-4,0-8.6,2.6-13.9,7.8
		c-5.3,5.2-9.5,10.1-12.8,14.8c-3.3,5-6.1,10.4-8.2,16.1c-2.2,5.7-3.3,10.6-3.3,14.6c0,3.9,1.1,6.4,3.3,7.4c5.1,0,9.8-1.8,14.3-5.4
		c4.5-3.6,9.2-9.1,14.2-16.7c1.8-2.8,3.6-6.3,5.3-10.5c1.7-4.2,3.1-8.2,4.1-12.1c1-3.9,1.5-7.2,1.5-9.9
		C586.4,64.7,585.8,62.9,584.7,62.2z"/>
	<path fill="#FFFFFF" stroke="#FFFFFF" stroke-miterlimit="10" d="M612.8,136.6c-9.3-4.8-14-13-14-24.8c0-5.7,1.2-11.7,3.5-18.2
		c2.4-6.4,5.7-12.8,9.9-18.9c4.2-6.2,9.3-11.9,15.1-17s12.1-9.5,19.1-12.8c3.7-1.9,7.4-2.8,11.3-2.8c4.1,0,7.8,1.1,11.2,3.3
		c3.4,2.2,6.1,5.1,8.3,8.7c2.1,3.6,3.4,7.1,3.8,10.5c0,6.8-1.5,14.5-4.6,23.3c-3,8.8-7.1,17.2-12.3,25.2c-5.1,8-11,14.6-17.6,19.7
		c-6.6,5.1-13.3,7.6-20,7.6C621.7,140.5,617.2,139.2,612.8,136.6z M658.8,62.2c-0.8-0.5-1.8-0.7-2.9-0.7c-4,0-8.6,2.6-13.9,7.8
		c-5.3,5.2-9.5,10.1-12.8,14.8c-3.3,5-6.1,10.4-8.2,16.1c-2.2,5.7-3.3,10.6-3.3,14.6c0,3.9,1.1,6.4,3.3,7.4c5.1,0,9.8-1.8,14.3-5.4
		c4.5-3.6,9.2-9.1,14.2-16.7c1.8-2.8,3.6-6.3,5.3-10.5c1.7-4.2,3.1-8.2,4.1-12.1c1-3.9,1.5-7.2,1.5-9.9
		C660.5,64.7,659.9,62.9,658.8,62.2z"/>
	<path fill="#FFFFFF" stroke="#FFFFFF" stroke-miterlimit="10" d="M731.2,4.6c1.1-0.4,2.7-0.8,4.7-1.4s4-0.8,5.8-0.8
		c1.4,0,2.5,0.2,3.1,0.7c-1,3-2.3,6.2-3.9,9.7s-4.8,10-9.6,19.7c-4.8,9.7-8.7,17.8-11.7,24.2c-3,6.5-6,13.1-8.8,19.8
		c1.7-1,4.7-2.8,8.7-5.4c4.1-2.6,8.1-5.2,12.2-8c4.8-3.2,9.2-6.2,13.4-9.1c4.2-2.9,7.3-5,9.4-6.5c0.8,0.4,1.3,1.7,1.3,3.7
		c0,1.6-0.1,3.2-0.4,4.6c0,0.4,0.5,1.1,1.6,2.1c1.1,1,2.1,2,3.2,2.9c1.1,0.9,2,1.8,2.7,2.5c0.7,0.7,1,1.4,1,2
		c-6.9,3.7-12.3,6.6-16,8.9c-3.7,2.3-13.5,8.4-29.3,18.3c1.6,1.5,4.1,4.2,7.6,8c3.5,3.8,7.9,8.9,13.2,15.4
		c5.2,6.5,9.5,12.3,12.7,17.6c-0.2,0.7-2.5,1-7,1.1c-4.5,0.1-7.4,0.3-9,0.7c-0.3,0.1-1.3,1-2.9,2.5c-1.7,1.5-3.3,2.3-4.8,2.3
		c-2.4-3.6-5.2-7.9-8.5-12.8c-3.3-4.9-5.9-8.6-7.7-11.1c-1.8-2.5-3.7-5-5.6-7.6c-1.9-2.6-3.6-5-5.1-7.2l-19.4,41.9
		c-1.1,0-2.1-0.4-2.8-1.1c-0.8-0.8-1.6-1.8-2.6-3.2c-1-1.4-1.7-2.2-2.4-2.6s-1.7-0.8-3.3-1.4c-1.6-0.6-2.9-1.2-3.8-1.9
		c-1-0.7-1.5-1.6-1.5-2.7c1.3-2.8,3.3-7.4,6.2-13.8s6.2-14,10-22.6c3.8-8.6,6.8-15.1,8.8-19.6c2-4.5,3.6-8.1,4.8-10.9
		c0.1,0-0.2,0.5-0.8,1.5c-0.5,1.1-0.9,1.8-1.1,2.3c-0.2,0.4-0.3,0.7-0.4,0.9c0-0.1,1.5-3.5,4.4-10.3c2.9-6.7,5.3-12.3,7.3-16.6
		c1.9-4.3,4.9-11,8.9-20c4-9,6.6-14.8,7.7-17.5c0.7-0.5,1.5-0.7,2.4-0.7c0.8,0,2,0.2,3.6,0.7S730.4,4.6,731.2,4.6z"/>
</g>
<path fill="#FFFFFF" stroke="#FFFFFF" stroke-miterlimit="10" d="M0,83.5c22.9,0,69,0,69,0"/>
<line fill="#FFFFFF" stroke="#FFFFFF" stroke-miterlimit="10" x1="768" y1="135.5" x2="911" y2="135.5"/>
</svg>
